HIERARCHY
ROOT Hips
{
	OFFSET -0.001795 -0.223333 0.028219
	CHANNELS 6 Xposition Yposition Zposition Zrotation Yrotation Xrotation 
	JOINT LeftUpLeg
	{
		OFFSET 0.069520 -0.091406 -0.006815
		CHANNELS 3 Zrotation Yrotation Xrotation
		JOINT LeftLeg
		{
			OFFSET 0.034277 -0.375199 -0.004496
			CHANNELS 3 Zrotation Yrotation Xrotation
			JOINT LeftFoot
			{
				OFFSET -0.013596 -0.397961 -0.043693
				CHANNELS 3 Zrotation Yrotation Xrotation
				JOINT LeftToe
				{
					OFFSET 0.026358 -0.055791 0.119288
					CHANNELS 3 Zrotation Yrotation Xrotation
					End Site
					{
						OFFSET 0.000000 0.000000 0.000000
					}
				}
			}
		}
	}
	JOINT RightUpLeg
	{
		OFFSET -0.067670 -0.090522 -0.004320
		CHANNELS 3 Zrotation Yrotation Xrotation
		JOINT RightLeg
		{
			OFFSET -0.038290 -0.382569 -0.008850
			CHANNELS 3 Zrotation Yrotation Xrotation
			JOINT RightFoot
			{
				OFFSET 0.015774 -0.398415 -0.042312
				CHANNELS 3 Zrotation Yrotation Xrotation
				JOINT RightToe
				{
					OFFSET -0.025372 -0.048144 0.123348
					CHANNELS 3 Zrotation Yrotation Xrotation
					End Site
					{
						OFFSET 0.000000 0.000000 0.000000
					}
				}
			}
		}
	}
	JOINT Spine
	{
		OFFSET -0.002533 0.108963 -0.026696
		CHANNELS 3 Zrotation Yrotation Xrotation
		JOINT Spine1
		{
			OFFSET 0.005487 0.135180 0.001092
			CHANNELS 3 Zrotation Yrotation Xrotation
			JOINT Spine2
			{
				OFFSET 0.001457 0.052922 0.025425
				CHANNELS 3 Zrotation Yrotation Xrotation
				JOINT Neck
				{
					OFFSET -0.002778 0.213870 -0.042857
					CHANNELS 3 Zrotation Yrotation Xrotation
					JOINT Head
					{
						OFFSET 0.005152 0.064970 0.051349
						CHANNELS 3 Zrotation Yrotation Xrotation
						End Site
						{
							OFFSET 0.000000 0.000000 0.000000
						}
					}
				}
				JOINT LeftShoulder
				{
					OFFSET 0.078845 0.121749 -0.034090
					CHANNELS 3 Zrotation Yrotation Xrotation
					JOINT LeftArm
					{
						OFFSET 0.090977 0.030469 -0.008868
						CHANNELS 3 Zrotation Yrotation Xrotation
						JOINT LeftForeArm
						{
							OFFSET 0.259612 -0.012772 -0.027456
							CHANNELS 3 Zrotation Yrotation Xrotation
							JOINT LeftHand
							{
								OFFSET 0.249234 0.008986 -0.001171
								CHANNELS 3 Zrotation Yrotation Xrotation
								End Site
								{
									OFFSET 0.000000 0.000000 0.000000
								}
							}
						}
					}
				}
				JOINT RightShoulder
				{
					OFFSET -0.081759 0.118833 -0.038615
					CHANNELS 3 Zrotation Yrotation Xrotation
					JOINT RightArm
					{
						OFFSET -0.096012 0.032551 -0.009143
						CHANNELS 3 Zrotation Yrotation Xrotation
						JOINT RightForeArm
						{
							OFFSET -0.253742 -0.013329 -0.021401
							CHANNELS 3 Zrotation Yrotation Xrotation
							JOINT RightHand
							{
								OFFSET -0.255298 0.007772 -0.005559
								CHANNELS 3 Zrotation Yrotation Xrotation
								End Site
								{
									OFFSET 0.000000 0.000000 0.000000
								}
							}
						}
					}
				}
			}
		}
	}
}
MOTION
Frames: 5
Frame Time: 0.050000
0.036080 0.955120 -0.005161 0.967353 -22.683180 12.749949 4.613483 -0.311745 -9.127882 -1.758925 0.352797 -4.978925 9.124551 16.417287 17.887343 0.000000 0.000000 0.000000 -1.220256 2.484491 -20.182863 -10.763945 1.054778 1.033768 11.694128 7.367286 20.635684 0.000000 0.000000 0.000000 3.504090 -0.698373 10.655271 5.431286 -2.165862 3.318890 -19.869463 -7.417736 3.951250 15.968984 -14.382296 12.227565 0.000000 0.000000 0.000000 4.531656 -43.904807 16.128798 -22.243199 -49.212337 6.748925 7.699972 -29.837176 -0.672478 0.000000 0.000000 0.000000 -8.884747 3.774752 2.869257 36.154722 -7.442808 -5.970934 119.027526 57.576553 78.085865 0.000000 0.000000 0.000000 
0.037507 0.955835 -0.007976 0.327726 -23.211258 12.818612 5.355700 -0.217295 -9.196181 -2.065400 0.382791 -4.700969 9.428668 16.788740 18.050570 0.000000 0.000000 0.000000 -0.075882 2.626395 -20.334087 -10.980579 1.035803 0.752372 11.348832 5.596962 21.872494 0.000000 0.000000 0.000000 2.971542 -0.640815 11.773785 5.373679 -2.131041 3.250611 -19.713499 -7.200582 3.548628 15.257666 -13.836133 12.996425 0.000000 0.000000 0.000000 7.599684 -45.449689 15.328082 -17.197401 -49.930456 5.157616 9.670830 -24.871760 -1.059689 0.000000 0.000000 0.000000 -8.261684 7.263300 3.596780 35.652584 -0.225901 -3.811589 106.255393 71.950883 82.128880 0.000000 0.000000 0.000000 
0.039466 0.956877 -0.010945 -0.175481 -24.118352 13.097056 5.965223 -0.120600 -9.884289 -2.499692 0.422516 -3.762765 9.951131 17.401567 18.359979 0.000000 0.000000 0.000000 0.439568 2.739810 -20.555763 -10.503945 0.898688 0.240917 11.133718 4.384311 22.656879 0.000000 0.000000 0.000000 2.247654 -0.529383 12.812297 4.968208 -1.898820 3.933032 -18.902765 -6.201275 1.872823 15.783023 -14.212955 12.573412 0.000000 0.000000 0.000000 10.676788 -47.787701 14.795115 -12.167615 -50.710352 3.422211 10.936871 -18.376815 -1.038293 0.000000 0.000000 0.000000 -7.450443 10.355937 4.216591 34.008644 8.897800 -1.158687 32.871187 77.709030 23.198874 0.000000 0.000000 0.000000 
0.041792 0.957708 -0.013691 -0.266325 -23.667893 12.863449 6.401873 -0.074841 -9.704981 -3.129447 0.506206 -4.092680 9.631459 16.978923 18.388536 0.000000 0.000000 0.000000 0.667566 2.762947 -20.600897 -10.577891 0.882393 0.027442 10.820017 2.799951 24.300306 0.000000 0.000000 0.000000 1.926077 -0.482045 13.612770 4.592243 -1.749210 3.843720 -18.403815 -5.580372 1.762458 15.518632 -14.216586 13.078655 0.000000 0.000000 0.000000 14.060419 -49.309182 13.645025 -7.796997 -51.443138 1.848018 12.659680 -12.363514 -0.903832 0.000000 0.000000 0.000000 -6.533194 14.244047 5.088888 33.327998 15.571024 0.484500 -3.282328 67.454606 -4.024724 0.000000 0.000000 0.000000 
0.044161 0.958141 -0.015964 -0.430617 -23.047618 12.848201 6.819667 -0.030070 -10.337193 -3.582939 0.557379 -3.370705 9.314183 16.604670 18.097107 0.000000 0.000000 0.000000 0.356674 2.668928 -20.326620 -9.439370 0.740141 -0.161130 9.607061 1.353731 23.642956 0.000000 0.000000 0.000000 1.563434 -0.431360 14.100175 4.971341 -1.905096 5.114064 -18.009418 -4.558735 0.302378 15.812802 -14.524442 12.323205 0.000000 0.000000 0.000000 16.892926 -49.512408 12.357094 -4.411809 -53.256959 0.503348 12.331966 -7.549706 -0.526634 0.000000 0.000000 0.000000 -6.192587 16.457009 5.631569 33.776671 21.107872 1.940344 -11.041380 57.426464 -6.615297 0.000000 0.000000 0.000000 
